<svg width="108" height="108" viewBox="0 0 108 108" fill="none" xmlns="http://www.w3.org/2000/svg">
<g filter="url(#filter0_d_944_753)">
<circle cx="54" cy="52" r="50" fill="url(#paint0_linear_944_753)"/>
</g>
<path d="M28.7196 52.0001C28.7196 39.3921 37.9996 28.8961 50.1596 27.0401L54.1916 21.6001H53.9996C37.2316 21.6001 23.5996 35.2321 23.5996 52.0001C23.5996 63.6481 30.1916 73.8241 39.8556 78.8801C39.8556 78.4961 39.9196 78.1121 39.9836 77.7281L40.8156 73.5041C33.5836 69.0881 28.7196 61.0881 28.7196 52.0001Z" fill="#E6F5FA"/>
<path d="M68.1426 25.1201C68.1426 25.5041 68.0786 25.8881 68.0146 26.2721L67.1826 30.4961C74.4146 34.8481 79.2786 42.9121 79.2786 52.0001C79.2786 64.6081 69.9986 75.1041 57.8386 76.9601L53.8066 82.4001H53.9986C70.7666 82.4001 84.3986 68.7681 84.3986 52.0001C84.3986 40.3521 77.8066 30.1761 68.1426 25.1201Z" fill="#E6F5FA"/>
<path d="M70.3195 45.984H58.7355L62.9595 25.184C63.4075 23.008 60.5275 21.728 59.2475 23.52L35.9515 54.688C34.9275 56.096 35.8875 58.016 37.6155 58.016H49.1995L45.0395 78.816C44.5915 80.992 47.4715 82.272 48.7515 80.48L71.9835 49.312C73.0715 47.904 72.0475 45.984 70.3195 45.984Z" fill="#E6F5FA"/>
<defs>
<filter id="filter0_d_944_753" x="0" y="0" width="108" height="108" filterUnits="userSpaceOnUse" color-interpolation-filters="sRGB">
<feFlood flood-opacity="0" result="BackgroundImageFix"/>
<feColorMatrix in="SourceAlpha" type="matrix" values="0 0 0 0 0 0 0 0 0 0 0 0 0 0 0 0 0 0 127 0" result="hardAlpha"/>
<feOffset dy="2"/>
<feGaussianBlur stdDeviation="2"/>
<feComposite in2="hardAlpha" operator="out"/>
<feColorMatrix type="matrix" values="0 0 0 0 0 0 0 0 0 0 0 0 0 0 0 0 0 0 0.25 0"/>
<feBlend mode="normal" in2="BackgroundImageFix" result="effect1_dropShadow_944_753"/>
<feBlend mode="normal" in="SourceGraphic" in2="effect1_dropShadow_944_753" result="shape"/>
</filter>
<linearGradient id="paint0_linear_944_753" x1="4" y1="-48" x2="144.841" y2="-15.3326" gradientUnits="userSpaceOnUse">
<stop offset="0.284375" stop-color="#E5C75E"/>
<stop offset="1" stop-color="#B96E38"/>
</linearGradient>
</defs>
</svg>
