<svg width="108" height="108" viewBox="0 0 108 108" fill="none" xmlns="http://www.w3.org/2000/svg">
<g filter="url(#filter0_d_944_745)">
<circle cx="54" cy="52" r="50" fill="url(#paint0_linear_944_745)"/>
</g>
<path d="M82.7746 76.1537L78.532 45.0824C78.3477 43.7307 77.1951 42.7521 75.8588 42.74C76.0328 42.6318 76.1948 42.4987 76.3298 42.331C76.9608 41.5496 76.8661 40.4097 76.1148 39.7429C76.1148 39.7429 58.573 23.9829 57.8485 23.867C56.7548 23.6917 55.7084 24.3816 55.4389 25.4561L52.2133 38.3029L50.806 38.6094C49.4818 38.8981 48.2344 39.4664 47.1477 40.2766L43.4837 43.0094C41.9797 44.1313 41.0165 45.8331 40.8277 47.6993L39.8831 57.0619C39.6207 59.659 40.2159 62.2709 41.5765 64.4987L43.4229 67.5214L28.4552 68.0833C26.7868 68.2081 25.3896 69.5841 25.2002 70.2715C25.2002 70.2715 25.1957 72.9083 26.0245 73.4075C26.6133 74.1422 29.4728 74.7361 29.4728 74.7361L44.477 79.6392C45.6744 80.0398 46.9628 79.2961 47.2988 78.0789C47.6034 76.9749 47.0114 75.908 45.9368 75.5118L43.5964 74.7361L45.78 74.1467L56.9557 74.411L80.2293 79.2411C81.8165 79.1521 82.9896 77.7281 82.7746 76.1537ZM59.7084 64.9621C59.0088 64.2363 58.2492 63.572 57.4357 62.9761L53.965 60.4328C51.7999 58.8462 51.1029 55.9246 52.3196 53.5317C52.3196 53.5317 56.0271 49.1022 56.2748 47.1733C56.7644 43.3563 58.7119 31.9745 58.7119 31.9745C58.7119 31.9745 73.4063 42.8296 74.6383 43.0094C73.6904 43.4734 73.0613 44.4629 73.1125 45.5765L74.2479 70.228L59.7084 64.9621Z" fill="#E6F5FA"/>
<path d="M61.8187 49.3082C65.8545 49.3082 69.1262 46.0366 69.1262 42.0007C69.1262 41.5226 69.0769 41.0567 68.9893 40.6049C66.4049 38.8167 63.3387 36.6017 60.8312 34.7681C59.9928 34.8813 59.2005 35.1348 58.4773 35.5073C57.8865 39.0305 56.9835 44.5121 56.6309 47.145C57.9544 48.4801 59.7893 49.3082 61.8187 49.3082Z" fill="#E6F5FA"/>
<defs>
<filter id="filter0_d_944_745" x="0" y="0" width="108" height="108" filterUnits="userSpaceOnUse" color-interpolation-filters="sRGB">
<feFlood flood-opacity="0" result="BackgroundImageFix"/>
<feColorMatrix in="SourceAlpha" type="matrix" values="0 0 0 0 0 0 0 0 0 0 0 0 0 0 0 0 0 0 127 0" result="hardAlpha"/>
<feOffset dy="2"/>
<feGaussianBlur stdDeviation="2"/>
<feComposite in2="hardAlpha" operator="out"/>
<feColorMatrix type="matrix" values="0 0 0 0 0 0 0 0 0 0 0 0 0 0 0 0 0 0 0.25 0"/>
<feBlend mode="normal" in2="BackgroundImageFix" result="effect1_dropShadow_944_745"/>
<feBlend mode="normal" in="SourceGraphic" in2="effect1_dropShadow_944_745" result="shape"/>
</filter>
<linearGradient id="paint0_linear_944_745" x1="4" y1="-48" x2="144.841" y2="-15.3326" gradientUnits="userSpaceOnUse">
<stop offset="0.284375" stop-color="#E5C75E"/>
<stop offset="1" stop-color="#B96E38"/>
</linearGradient>
</defs>
</svg>
