<svg width="108" height="108" viewBox="0 0 108 108" fill="none" xmlns="http://www.w3.org/2000/svg">
<g filter="url(#filter0_d_944_782)">
<circle cx="54" cy="52" r="50" fill="url(#paint0_linear_944_782)"/>
</g>
<g clip-path="url(#clip0_944_782)">
<g filter="url(#filter1_d_944_782)">
<path d="M55.2657 44.8295C54.9111 44.6249 54.7884 44.1681 54.9929 43.8068L57.6179 39.2522C57.8225 38.8977 58.2793 38.7749 58.6407 38.9795C59.002 39.184 59.1179 39.6408 58.9134 40.0022L56.2884 44.5567C56.0839 44.9181 55.627 45.0408 55.2657 44.8295ZM82.1907 66.5931C78.7134 69.7363 75.2225 71.9454 71.8066 73.4522C68.4929 74.9181 65.2543 75.709 62.1998 76.0431C62.8339 75.1295 63.2907 74.0795 63.5157 72.9477C67.102 73.1795 70.1361 70.3295 70.1361 66.7431C70.1361 64.2545 68.6566 62.0181 66.3861 61.0363C66.727 59.5977 66.5429 58.0908 65.8952 56.7954C67.6066 57.6136 69.3929 58.6499 71.1043 60.1363C71.4179 60.409 71.8884 60.3749 72.1543 60.0613C72.427 59.7477 72.3929 59.2772 72.0793 59.0113C70.927 58.0158 69.7611 57.2113 68.602 56.5363C66.502 54.2386 66.3793 50.8022 66.2089 46.1931C66.0929 43.0568 65.9907 40.3022 65.2339 37.2136C64.702 35.059 64.027 33.2386 63.4816 31.9636C62.8952 30.5863 61.2452 30.0408 59.9566 30.7908C58.3543 31.7181 56.6907 32.6317 55.1157 33.5931C54.5839 33.8795 53.9089 33.6817 53.602 33.1636C53.2816 32.6386 53.4861 31.9227 54.0179 31.6158C55.0679 31.009 56.1179 30.4022 57.1679 29.7954C57.7202 29.4817 58.1566 28.7863 58.2998 28.1727C58.4429 27.5795 58.3952 26.9249 58.0339 26.3181C57.8225 25.9636 57.3657 25.8408 57.0111 26.0522C56.6566 26.2636 56.5339 26.7204 56.7452 27.0749C56.8884 27.3136 56.902 27.5795 56.8475 27.8249C56.7725 28.1249 56.5884 28.3908 56.3839 28.5272L53.8202 30.0067L51.7952 27.4636C51.3179 26.8567 51.2839 26.0658 51.7134 25.4317L52.8384 23.7681C53.2407 23.1681 53.8475 22.8477 54.5702 22.8477H61.5179C62.8611 22.9636 64.4429 23.4067 65.3361 24.4977C65.377 24.5522 80.5202 42.9886 82.8793 53.1204C82.8861 53.1408 82.8929 53.1681 82.8998 53.1886C82.8998 53.209 85.927 62.7477 82.1907 66.5931ZM75.2225 51.9817C74.677 42.259 71.4793 37.8136 71.4725 37.7999C71.2339 37.4658 70.7702 37.384 70.4293 37.6158C70.0952 37.8545 70.0134 38.3181 70.2452 38.659C70.252 38.6727 73.2043 42.7704 73.7293 52.0636C73.7498 52.4727 74.1043 52.7931 74.5134 52.7658C74.9225 52.7386 75.2429 52.3908 75.2225 51.9817ZM81.3657 60.3613C81.3316 59.9522 80.9702 59.6454 80.5611 59.6727C80.152 59.7067 79.8452 60.0681 79.8725 60.4772C79.9407 61.3022 79.7566 62.0318 79.477 62.6454C78.9861 63.7158 78.2089 64.4386 77.9361 64.6704C77.6225 64.9363 77.5816 65.4068 77.8475 65.7204C78.1134 66.034 78.5839 66.0749 78.8975 65.809C79.2384 65.5158 80.2134 64.6227 80.8339 63.2658C81.2089 62.4477 81.4543 61.4658 81.3657 60.3613ZM46.402 43.7249C46.8179 43.7249 47.152 43.3908 47.152 42.9749V37.7181C47.152 37.3022 46.8179 36.9681 46.402 36.9681C45.9861 36.9681 45.652 37.3022 45.652 37.7181V42.9749C45.652 43.3908 45.9861 43.7249 46.402 43.7249ZM36.5157 44.5567C36.7202 44.9113 37.177 45.034 37.5316 44.8295C37.8861 44.6249 38.0089 44.1681 37.8043 43.8136L35.1793 39.259C34.9748 38.9045 34.518 38.7817 34.1634 38.9863C33.8089 39.1908 33.6861 39.6477 33.8907 40.0022L36.5157 44.5567ZM28.593 72.3613C26.9361 72.4431 25.293 71.7545 24.168 70.534V80.2499C25.4975 80.2022 28.5793 79.7795 31.5793 77.1204C30.0589 75.9954 28.9611 74.3181 28.593 72.3613ZM24.502 59.4545C24.502 54.934 28.1702 51.2658 32.6907 51.2658C33.0316 51.2658 33.3657 51.2863 33.6929 51.3272C33.8702 50.8295 34.0884 50.359 34.3475 49.9158C31.0339 49.1386 27.543 49.1045 24.1748 49.4931V62.8499C24.4134 62.5908 24.6725 62.3522 24.9589 62.1408C24.6589 61.3022 24.502 60.3954 24.502 59.4545ZM61.9475 69.6408C62.5679 71.9931 61.8793 74.434 60.2089 76.0977C58.9952 77.3113 57.3248 78.0545 55.477 78.0545C54.1407 78.0545 52.8589 77.6727 51.7543 76.9227C52.4566 75.7158 52.8589 74.3113 52.8589 72.8181C52.8589 72.4022 52.5248 72.0681 52.1089 72.0681C51.6929 72.0681 51.3589 72.4022 51.3589 72.8181C51.3589 76.5136 48.3657 79.5068 44.6702 79.5068C40.9748 79.5068 37.9816 76.5136 37.9816 72.8181C37.9816 72.4022 37.6475 72.0681 37.2316 72.0681C36.8157 72.0681 36.4816 72.4022 36.4816 72.8181C36.4816 74.3454 36.8975 75.7704 37.627 76.9908C33.9316 77.8636 30.3111 75.2318 29.9634 71.4681C29.9293 71.059 29.5611 70.759 29.152 70.7931C28.8657 70.8204 28.6475 70.8681 28.3407 70.8681C26.0361 70.8681 24.1611 68.9999 24.1611 66.6954C24.1611 65.4749 24.6725 64.3431 25.5861 63.5454C26.0293 64.309 26.5884 64.9977 27.243 65.5772C27.5498 65.8499 28.0202 65.8227 28.293 65.5158C28.5657 65.209 28.5384 64.7386 28.2316 64.4658C26.793 63.1908 25.9816 61.3772 25.9816 59.4613C25.9816 55.7658 28.9748 52.7727 32.6702 52.7727C33.8634 52.7727 35.0975 53.1136 36.1202 53.7272C34.6134 54.2249 33.3793 55.3431 32.7248 56.7886C32.5543 57.1636 32.7248 57.6068 33.0998 57.7772C33.4748 57.9477 33.9179 57.7772 34.0884 57.4022C35.227 54.8863 38.4657 54.1499 40.5793 55.8818C40.8998 56.1408 41.3702 56.0999 41.6293 55.7795C41.8884 55.459 41.8475 54.9886 41.527 54.7295C40.5861 53.9522 39.4407 53.509 38.2202 53.4408C37.3407 52.6295 36.2907 52.0158 35.1452 51.6545C36.1407 49.0704 38.6225 47.3658 41.3975 47.3658C43.9952 47.3658 46.3543 48.8658 47.4589 51.2113C46.6611 52.0431 46.0339 53.0386 45.6452 54.1499C45.5089 54.5386 45.7134 54.9681 46.102 55.1045C46.4907 55.2408 46.9202 55.0363 47.0566 54.6477C48.0043 51.9749 50.5339 50.1886 53.3634 50.1886C57.0589 50.1886 60.052 53.1817 60.052 56.8772C60.052 57.2931 60.3861 57.6272 60.802 57.6272C61.2179 57.6272 61.552 57.2931 61.552 56.8772C61.552 56.209 61.4702 55.5545 61.3202 54.9272C63.8702 55.5067 65.4861 58.0363 64.9407 60.6136C64.6066 60.559 64.2589 60.5318 63.9111 60.5318C63.4952 60.5318 63.1611 60.8658 63.1611 61.2818C63.1611 61.6977 63.4952 62.0317 63.9111 62.0317C66.5157 62.0317 68.6293 64.1454 68.6293 66.7499C68.6293 69.4568 66.3589 71.6045 63.6589 71.4613C63.6657 70.7249 63.5702 69.9749 63.3861 69.2658C63.2839 68.8704 62.8748 68.6318 62.4725 68.734C62.077 68.8295 61.8384 69.2386 61.9475 69.6408ZM49.0816 60.6818C50.7929 60.6818 52.5043 61.3363 53.8134 62.6386C54.1066 62.9317 54.577 62.9317 54.8702 62.6386C55.1634 62.3454 55.1634 61.8749 54.8702 61.5818C53.2748 59.9863 51.1748 59.1818 49.0816 59.1818C46.2111 59.1818 43.5589 60.6818 42.0793 63.1227C41.302 64.3022 40.0066 65.0181 38.568 65.0181C37.593 65.0181 36.6657 64.6908 35.9157 64.0704C35.5952 63.8113 35.1248 63.859 34.8657 64.1727C34.6066 64.4931 34.6543 64.9636 34.968 65.2227C35.9839 66.0545 37.2589 66.5045 38.568 66.5045C39.4407 66.5045 40.2725 66.3068 41.0225 65.9454C40.7293 67.5954 40.9611 69.3408 41.6975 70.8749C41.8748 71.2499 42.3248 71.4068 42.6929 71.2295C43.0679 71.0522 43.2248 70.609 43.0475 70.234C42.4475 68.9727 42.2634 67.5613 42.4952 66.2113C43.0407 63.0272 45.8293 60.6818 49.0816 60.6818ZM57.427 65.2908C57.0793 65.0658 56.6157 65.1681 56.3975 65.5158C55.6202 66.7295 54.2975 67.4454 52.8589 67.4454C51.8839 67.4454 50.9566 67.1181 50.2066 66.4977C49.8861 66.2386 49.4157 66.2863 49.1566 66.5999C48.8975 66.9204 48.9452 67.3908 49.2589 67.6499C50.2748 68.4818 51.5498 68.9317 52.8589 68.9317C54.7952 68.9317 56.602 67.9431 57.652 66.3136C57.8702 65.9795 57.7679 65.5158 57.427 65.2908Z" fill="#E6F5FA"/>
</g>
</g>
<defs>
<filter id="filter0_d_944_782" x="0" y="0" width="108" height="108" filterUnits="userSpaceOnUse" color-interpolation-filters="sRGB">
<feFlood flood-opacity="0" result="BackgroundImageFix"/>
<feColorMatrix in="SourceAlpha" type="matrix" values="0 0 0 0 0 0 0 0 0 0 0 0 0 0 0 0 0 0 127 0" result="hardAlpha"/>
<feOffset dy="2"/>
<feGaussianBlur stdDeviation="2"/>
<feComposite in2="hardAlpha" operator="out"/>
<feColorMatrix type="matrix" values="0 0 0 0 0 0 0 0 0 0 0 0 0 0 0 0 0 0 0.25 0"/>
<feBlend mode="normal" in2="BackgroundImageFix" result="effect1_dropShadow_944_782"/>
<feBlend mode="normal" in="SourceGraphic" in2="effect1_dropShadow_944_782" result="shape"/>
</filter>
<filter id="filter1_d_944_782" x="20.1611" y="22.8477" width="67.8965" height="65.4023" filterUnits="userSpaceOnUse" color-interpolation-filters="sRGB">
<feFlood flood-opacity="0" result="BackgroundImageFix"/>
<feColorMatrix in="SourceAlpha" type="matrix" values="0 0 0 0 0 0 0 0 0 0 0 0 0 0 0 0 0 0 127 0" result="hardAlpha"/>
<feOffset dy="4"/>
<feGaussianBlur stdDeviation="2"/>
<feComposite in2="hardAlpha" operator="out"/>
<feColorMatrix type="matrix" values="0 0 0 0 0.172549 0 0 0 0 0.243137 0 0 0 0 0.313726 0 0 0 0.25 0"/>
<feBlend mode="normal" in2="BackgroundImageFix" result="effect1_dropShadow_944_782"/>
<feBlend mode="normal" in="SourceGraphic" in2="effect1_dropShadow_944_782" result="shape"/>
</filter>
<linearGradient id="paint0_linear_944_782" x1="4" y1="-48" x2="144.841" y2="-15.3326" gradientUnits="userSpaceOnUse">
<stop offset="0.284375" stop-color="#E5C75E"/>
<stop offset="1" stop-color="#B96E38"/>
</linearGradient>
<clipPath id="clip0_944_782">
<rect width="60" height="60" fill="white" transform="translate(24 22)"/>
</clipPath>
</defs>
</svg>
