<svg width="398" height="231" viewBox="0 0 398 231" fill="none" xmlns="http://www.w3.org/2000/svg">
<path d="M313.884 209.633C313.884 209.633 225.214 211.734 195.648 211.734C166.083 211.734 77.4126 209.633 77.4126 209.633C54.5118 209.633 35.774 193.74 35.774 174.316C35.774 174.316 33.2969 130.125 33.2969 115.367C33.2969 100.609 35.774 56.418 35.774 56.418C35.774 36.994 54.5118 21.101 77.4126 21.101C77.4126 21.101 166.083 19 195.648 19C225.214 19 313.884 21.101 313.884 21.101C336.785 21.101 355.523 36.994 355.523 56.418C355.523 56.418 358 100.572 358 115.367C358 130.163 355.523 174.316 355.523 174.316C355.523 193.74 336.785 209.633 313.884 209.633Z" fill="#FF0000"/>
<path fill-rule="evenodd" clip-rule="evenodd" d="M165 158V72L242 114.993L165 158Z" fill="white"/>
</svg>
