<svg width="108" height="108" viewBox="0 0 108 108" fill="none" xmlns="http://www.w3.org/2000/svg">
<g filter="url(#filter0_d_944_704)">
<circle cx="54" cy="52" r="50" fill="url(#paint0_linear_944_704)"/>
</g>
<circle cx="54" cy="52" r="30" fill="#E6F5FA"/>
<circle cx="42" cy="46" r="5" fill="url(#paint1_linear_944_704)"/>
<path d="M64 62.5601C64 68.0829 59.5228 72.5601 54 72.5601C48.4772 72.5601 44 68.0829 44 62.5601C44 60.5599 48.4772 64.5601 54 64.5601C59.5228 64.5601 64 60.5603 64 62.5601Z" fill="url(#paint2_linear_944_704)"/>
<circle cx="66" cy="46" r="5" fill="url(#paint3_linear_944_704)"/>
<defs>
<filter id="filter0_d_944_704" x="0" y="0" width="108" height="108" filterUnits="userSpaceOnUse" color-interpolation-filters="sRGB">
<feFlood flood-opacity="0" result="BackgroundImageFix"/>
<feColorMatrix in="SourceAlpha" type="matrix" values="0 0 0 0 0 0 0 0 0 0 0 0 0 0 0 0 0 0 127 0" result="hardAlpha"/>
<feOffset dy="2"/>
<feGaussianBlur stdDeviation="2"/>
<feComposite in2="hardAlpha" operator="out"/>
<feColorMatrix type="matrix" values="0 0 0 0 0 0 0 0 0 0 0 0 0 0 0 0 0 0 0.25 0"/>
<feBlend mode="normal" in2="BackgroundImageFix" result="effect1_dropShadow_944_704"/>
<feBlend mode="normal" in="SourceGraphic" in2="effect1_dropShadow_944_704" result="shape"/>
</filter>
<linearGradient id="paint0_linear_944_704" x1="4" y1="-48" x2="144.841" y2="-15.3326" gradientUnits="userSpaceOnUse">
<stop offset="0.284375" stop-color="#E5C75E"/>
<stop offset="1" stop-color="#B96E38"/>
</linearGradient>
<linearGradient id="paint1_linear_944_704" x1="37" y1="36" x2="51.0841" y2="39.2667" gradientUnits="userSpaceOnUse">
<stop offset="0.284375" stop-color="#E5C75E"/>
<stop offset="1" stop-color="#B96E38"/>
</linearGradient>
<linearGradient id="paint2_linear_944_704" x1="44" y1="56.72" x2="68.8821" y2="67.6503" gradientUnits="userSpaceOnUse">
<stop offset="0.284375" stop-color="#E5C75E"/>
<stop offset="1" stop-color="#B96E38"/>
</linearGradient>
<linearGradient id="paint3_linear_944_704" x1="61" y1="36" x2="75.0841" y2="39.2667" gradientUnits="userSpaceOnUse">
<stop offset="0.284375" stop-color="#E5C75E"/>
<stop offset="1" stop-color="#B96E38"/>
</linearGradient>
</defs>
</svg>
