<svg width="108" height="108" viewBox="0 0 108 108" fill="none" xmlns="http://www.w3.org/2000/svg">
<g filter="url(#filter0_d_944_740)">
<circle cx="54" cy="52" r="50" fill="url(#paint0_linear_944_740)"/>
</g>
<path d="M29.0546 52.0205C29.8169 52.0186 30.571 51.8626 31.2715 51.5619C31.972 51.2612 32.6044 50.8219 33.1308 50.2705C34.2248 49.1075 35.147 47.7943 35.8696 46.3705C36.287 45.5661 36.9354 44.9048 37.7315 44.4716C38.5276 44.0384 39.435 43.8531 40.3371 43.9395C41.2393 44.0259 42.0951 44.38 42.7945 44.9565C43.4939 45.5329 44.005 46.3052 44.2621 47.1743C44.5783 48.238 44.8871 49.4443 45.1971 50.7605L45.2083 50.8143C45.2083 50.8493 45.8658 54.4193 47.3546 57.1893C47.6348 57.7084 48.051 58.1415 48.5586 58.442C49.0661 58.7426 49.6459 58.8994 50.2358 58.8955C50.8494 58.8951 51.4508 58.7237 51.9725 58.4007C52.4942 58.0777 52.9156 57.6158 53.1896 57.0668C54.0896 55.2318 55.5296 52.7468 57.2858 51.3168C58.158 50.6168 59.2438 50.237 60.3621 50.2405H64.4871C64.7706 50.2372 65.0449 50.3411 65.2551 50.5314C65.4654 50.7217 65.596 50.9843 65.6208 51.2668C65.6311 51.417 65.6104 51.5677 65.56 51.7095C65.5095 51.8514 65.4304 51.9814 65.3276 52.0913C65.2248 52.2013 65.1004 52.2889 64.9623 52.3488C64.8241 52.4087 64.6751 52.4395 64.5246 52.4393H60.3621C59.7488 52.4338 59.1522 52.6389 58.6721 53.0205C57.5283 53.9493 56.3146 55.6805 55.1646 58.0268C54.708 58.944 54.0051 59.716 53.1346 60.2565C52.2641 60.7969 51.2604 61.0844 50.2358 61.0868C49.2484 61.092 48.278 60.829 47.4284 60.3257C46.5789 59.8224 45.8819 59.0978 45.4121 58.2293C43.8121 55.2455 43.1158 51.6143 43.0446 51.2293C42.7521 49.968 42.4521 48.8143 42.1508 47.8005C42.0185 47.3524 41.7554 46.9541 41.3952 46.6564C41.0351 46.3588 40.5943 46.1755 40.1293 46.13C39.6643 46.0845 39.1963 46.1788 38.7852 46.4009C38.3742 46.6231 38.0388 46.9629 37.8221 47.3768C37.0049 48.9886 35.9614 50.4753 34.7233 51.7918C33.9906 52.5569 33.1106 53.1659 32.1365 53.5822C31.1623 53.9985 30.114 54.2135 29.0546 54.2143H28.2133C28.0777 54.2142 27.9441 54.2482 27.825 54.3131C27.7059 54.3781 27.605 54.4719 27.5316 54.586C27.4581 54.7001 27.4146 54.8308 27.4048 54.9662C27.3951 55.1015 27.4195 55.2371 27.4758 55.3605V55.373C27.4758 55.373 33.7971 67.9118 51.4371 76.7968C52.1915 77.1765 53.0244 77.3743 53.869 77.3743C54.7136 77.3743 55.5464 77.1765 56.3008 76.7968C73.9408 67.9118 80.2571 55.373 80.2571 55.373C83.9058 47.4893 83.4821 41.498 81.9258 37.2943C80.9127 34.5547 79.1817 32.1379 76.9139 30.297C74.6462 28.4561 71.9252 27.2588 69.0358 26.8305C59.2308 25.3505 53.8696 34.373 53.8696 34.373C53.8696 34.373 48.5071 25.3505 38.7021 26.8305C35.8128 27.2588 33.0918 28.4561 30.824 30.297C28.5563 32.1379 26.8252 34.5547 25.8121 37.2943C24.5258 40.768 24.0146 45.4693 25.9371 51.4518C25.9894 51.6167 26.0928 51.7607 26.2323 51.8629C26.3719 51.9652 26.5403 52.0204 26.7133 52.0205H29.0546ZM70.8833 51.3518C70.9106 51.2106 70.9659 51.0763 71.0458 50.9568C71.0857 50.8963 71.1318 50.8402 71.1833 50.7893C71.2341 50.7381 71.2898 50.6921 71.3496 50.6518C71.4094 50.6128 71.4725 50.5794 71.5383 50.5518C71.6053 50.5243 71.6748 50.5034 71.7458 50.4893C71.8872 50.4593 72.0332 50.4593 72.1746 50.4893C72.2449 50.5031 72.3136 50.524 72.3796 50.5518C72.4466 50.5786 72.5106 50.6121 72.5708 50.6518C72.6908 50.7329 72.7939 50.8365 72.8746 50.9568C72.9542 51.0766 73.0098 51.2108 73.0383 51.3518C73.0522 51.4226 73.0593 51.4946 73.0596 51.5668C73.0593 51.6394 73.0522 51.7118 73.0383 51.783C73.0238 51.8531 73.0029 51.9217 72.9758 51.988C72.9481 52.054 72.9142 52.1172 72.8746 52.1768C72.8344 52.2374 72.7883 52.2939 72.7371 52.3455C72.6865 52.3962 72.6308 52.4414 72.5708 52.4805C72.5112 52.5216 72.4471 52.5556 72.3796 52.5818C72.3136 52.6099 72.2449 52.6313 72.1746 52.6455C71.9609 52.6884 71.7393 52.6662 71.5383 52.5818C71.472 52.5548 71.4088 52.5208 71.3496 52.4805C71.2899 52.4411 71.2342 52.3959 71.1833 52.3455C71.1321 52.2939 71.086 52.2374 71.0458 52.1768C71.0058 52.1175 70.9718 52.0542 70.9446 51.988C70.9174 51.9219 70.8969 51.8532 70.8833 51.783C70.8684 51.7119 70.8609 51.6394 70.8608 51.5668C70.8606 51.4929 70.8681 51.4191 70.8833 51.3468V51.3518Z" fill="#E6F5FA"/>
<defs>
<filter id="filter0_d_944_740" x="0" y="0" width="108" height="108" filterUnits="userSpaceOnUse" color-interpolation-filters="sRGB">
<feFlood flood-opacity="0" result="BackgroundImageFix"/>
<feColorMatrix in="SourceAlpha" type="matrix" values="0 0 0 0 0 0 0 0 0 0 0 0 0 0 0 0 0 0 127 0" result="hardAlpha"/>
<feOffset dy="2"/>
<feGaussianBlur stdDeviation="2"/>
<feComposite in2="hardAlpha" operator="out"/>
<feColorMatrix type="matrix" values="0 0 0 0 0 0 0 0 0 0 0 0 0 0 0 0 0 0 0.25 0"/>
<feBlend mode="normal" in2="BackgroundImageFix" result="effect1_dropShadow_944_740"/>
<feBlend mode="normal" in="SourceGraphic" in2="effect1_dropShadow_944_740" result="shape"/>
</filter>
<linearGradient id="paint0_linear_944_740" x1="4" y1="-48" x2="144.841" y2="-15.3326" gradientUnits="userSpaceOnUse">
<stop offset="0.284375" stop-color="#E5C75E"/>
<stop offset="1" stop-color="#B96E38"/>
</linearGradient>
</defs>
</svg>
