<svg width="108" height="108" viewBox="0 0 108 108" fill="none" xmlns="http://www.w3.org/2000/svg">
<g filter="url(#filter0_d_944_713)">
<circle cx="54" cy="52" r="50" fill="url(#paint0_linear_944_713)"/>
</g>
<path fill-rule="evenodd" clip-rule="evenodd" d="M46.4324 70.7541C46.3101 66.789 44.3815 63.0875 41.1844 60.7157C35.9115 56.9855 32.5081 50.8272 32.5081 43.8808C32.5081 32.3703 41.853 23.0254 53.3635 23.0254C64.8739 23.0254 74.2198 32.3703 74.2198 43.8808C74.2198 50.8253 70.8183 56.9817 65.5922 60.773C62.4123 63.1314 60.4952 66.8119 60.3729 70.7541H61.3243C61.8735 70.7541 62.3187 71.2002 62.3187 71.7495C62.3187 72.2987 61.8735 72.7448 61.3243 72.7448H60.3261C60.2888 74.4671 60.2888 75.7213 60.2888 75.7213C60.2888 76.2495 59.8618 76.6765 59.3336 76.6765H58.216C58.0364 77.6365 57.5712 78.5287 56.871 79.2289C55.9569 80.143 54.717 80.6569 53.4236 80.6569H53.3042C52.0109 80.6569 50.771 80.143 49.8568 79.2289C49.1557 78.5287 48.6905 77.6365 48.5109 76.6765H47.3933C46.866 76.6765 46.4381 76.2495 46.4381 75.7213V72.7448H45.4036C44.8543 72.7448 44.4082 72.2987 44.4082 71.7495C44.4082 71.2002 44.8543 70.7541 45.4036 70.7541H46.4324ZM58.4615 70.7541C58.4796 70.0855 58.5427 69.4235 58.6487 68.772H48.1575C48.2626 69.4244 48.3256 70.0864 48.3438 70.7541H58.4615ZM48.3485 74.766H58.3841C58.3889 74.2474 58.3984 73.5472 58.4147 72.7448H48.3485V74.766ZM54.3588 35.9362C54.3588 33.1909 56.5883 30.9614 59.3336 30.9614C61.7647 30.9614 63.7907 32.7075 64.2234 35.0135C65.9514 34.6533 67.7912 35.4156 68.7215 37.0271C69.8802 39.034 69.1925 41.6045 67.1865 42.7651C67.8762 43.6191 68.2888 44.7052 68.2888 45.8868C68.2888 48.3312 66.5217 50.3668 64.1967 50.7832C64.2702 51.1243 64.3094 51.4786 64.3094 51.8407C64.3094 54.5869 62.0799 56.8164 59.3336 56.8164C56.5883 56.8164 54.3588 54.5869 54.3588 51.8407V35.9362ZM64.169 37.113C63.6398 39.2919 61.6749 40.912 59.3336 40.912C58.7844 40.912 58.3392 40.4659 58.3392 39.9166C58.3392 39.3674 58.7844 38.9213 59.3336 38.9213C60.9814 38.9213 62.3187 37.584 62.3187 35.9362C62.3187 34.2884 60.9814 32.9511 59.3336 32.9511C57.6868 32.9511 56.3485 34.2884 56.3485 35.9362V51.8407C56.3485 53.4884 57.6868 54.8258 59.3336 54.8258C60.9814 54.8258 62.3187 53.4884 62.3187 51.8407C62.3187 50.1939 60.9814 48.8556 59.3336 48.8556C58.7844 48.8556 58.3392 48.4105 58.3392 47.8612C58.3392 47.312 58.7844 46.8659 59.3336 46.8659C60.967 46.8659 62.418 47.6549 63.3255 48.8718C64.9675 48.8661 66.2991 47.5307 66.2991 45.8868C66.2991 44.7663 65.6811 43.7891 64.7669 43.279C64.6781 43.2494 64.595 43.2074 64.5186 43.1548C64.1498 42.9924 63.7429 42.9017 63.314 42.9017C62.7705 42.9017 62.2614 43.0469 61.8229 43.301C61.3472 43.5761 60.7378 43.4137 60.4627 42.938C60.1876 42.4632 60.35 41.8538 60.8257 41.5787C61.5574 41.1546 62.4075 40.912 63.314 40.912C64.0238 40.912 64.6981 41.06 65.3095 41.3284C65.6104 41.2979 65.9094 41.2043 66.1883 41.0438C67.2457 40.4334 67.6078 39.0789 66.9974 38.0215C66.4242 37.028 65.193 36.6478 64.169 37.113ZM39.5404 42.7651C37.5354 41.6045 36.8476 39.034 38.0063 37.0271C38.9367 35.4156 40.7765 34.6533 42.5045 35.0135C42.9372 32.7075 44.9632 30.9614 47.3933 30.9614C50.1396 30.9614 52.3691 33.1909 52.3691 35.9362V51.8407C52.3691 54.5869 50.1396 56.8164 47.3933 56.8164C44.648 56.8164 42.4185 54.5869 42.4185 51.8407C42.4185 51.4786 42.4577 51.1243 42.5312 50.7832C40.2052 50.3668 38.4381 48.3312 38.4381 45.8868C38.4381 44.7052 38.8517 43.6191 39.5404 42.7651ZM42.5589 37.113C41.5349 36.6478 40.3036 37.028 39.7295 38.0215C39.1192 39.0789 39.4821 40.4334 40.5396 41.0438C40.8185 41.2043 41.1175 41.2979 41.4184 41.3284C42.0288 41.06 42.7041 40.912 43.4138 40.912C44.3194 40.912 45.1695 41.1546 45.9022 41.5787C46.3769 41.8538 46.5403 42.4632 46.2642 42.938C45.9891 43.4137 45.3806 43.5761 44.9049 43.301C44.4665 43.0469 43.9564 42.9017 43.4138 42.9017C42.9849 42.9017 42.5771 42.9924 42.2084 43.1548C42.1329 43.2074 42.0498 43.2494 41.9609 43.279C41.0468 43.7891 40.4288 44.7663 40.4288 45.8868C40.4288 47.5307 41.7604 48.8661 43.4024 48.8718C44.3098 47.6549 45.7599 46.8659 47.3933 46.8659C47.9426 46.8659 48.3886 47.312 48.3886 47.8612C48.3886 48.4105 47.9426 48.8556 47.3933 48.8556C45.7465 48.8556 44.4082 50.1939 44.4082 51.8407C44.4082 53.4884 45.7465 54.8258 47.3933 54.8258C49.0411 54.8258 50.3784 53.4884 50.3784 51.8407V35.9362C50.3784 34.2884 49.0411 32.9511 47.3933 32.9511C45.7465 32.9511 44.4082 34.2884 44.4082 35.9362C44.4082 37.584 45.7465 38.9213 47.3933 38.9213C47.9426 38.9213 48.3886 39.3674 48.3886 39.9166C48.3886 40.4659 47.9426 40.912 47.3933 40.912C45.053 40.912 43.0881 39.2919 42.5589 37.113ZM64.338 65.53L77.0033 52.8656C77.3912 52.4769 78.0216 52.4769 78.4104 52.8656L81.9285 56.3837C82.3163 56.7715 82.3163 57.402 81.9285 57.7908L69.2632 70.4551C68.8753 70.8439 68.2449 70.8439 67.8561 70.4551L64.338 66.937C63.9502 66.5483 63.9502 65.9188 64.338 65.53ZM78.7161 58.1881C79.3962 57.508 79.8174 57.0868 79.8174 57.0868L77.7064 54.9757L66.4491 66.233L68.5601 68.3441C68.5601 68.3441 68.9814 67.9228 69.6615 67.2427L69.0444 66.6266C68.6556 66.2378 68.6556 65.6074 69.0444 65.2195C69.4332 64.8308 70.0636 64.8308 70.4515 65.2195L71.0685 65.8357C71.4277 65.4765 71.8117 65.0925 72.21 64.6942L71.5939 64.0771C71.2051 63.6893 71.2051 63.0579 71.5939 62.67C71.9817 62.2813 72.6122 62.2813 73.0009 62.67L73.6171 63.2862C73.9972 62.9069 74.3803 62.5239 74.7595 62.1447L74.1434 61.5276C73.7546 61.1398 73.7546 60.5093 74.1434 60.1206C74.5312 59.7327 75.1617 59.7327 75.5504 60.1206L76.1666 60.7376C76.5658 60.3383 76.9498 59.9543 77.309 59.5952L76.6919 58.9781C76.3041 58.5903 76.3041 57.9598 76.6919 57.5711C77.0807 57.1832 77.7112 57.1832 78.0999 57.5711L78.7161 58.1881ZM24.7994 56.6455L28.3175 53.1274C28.7063 52.7386 29.3358 52.7386 29.7245 53.1274L41.0716 64.4745C41.2035 64.6063 41.2961 64.7725 41.3372 64.954L42.3927 69.5276C42.4701 69.8619 42.3698 70.2125 42.1272 70.4551C41.8845 70.6978 41.534 70.798 41.1996 70.7207L36.626 69.6652C36.4445 69.6241 36.2783 69.5314 36.1465 69.3996L24.7994 58.0525C24.4106 57.6637 24.4106 57.0342 24.7994 56.6455ZM38.1295 64.3465C35.3145 61.5314 29.0215 55.2384 29.0215 55.2384L26.9104 57.3495L36.0443 66.4833L38.1295 64.3465ZM37.5125 67.8273C38.0999 67.9629 40.0964 68.4243 40.0964 68.4243L39.4907 65.8013L37.5125 67.8273Z" fill="#E6F5FA"/>
<defs>
<filter id="filter0_d_944_713" x="0" y="0" width="108" height="108" filterUnits="userSpaceOnUse" color-interpolation-filters="sRGB">
<feFlood flood-opacity="0" result="BackgroundImageFix"/>
<feColorMatrix in="SourceAlpha" type="matrix" values="0 0 0 0 0 0 0 0 0 0 0 0 0 0 0 0 0 0 127 0" result="hardAlpha"/>
<feOffset dy="2"/>
<feGaussianBlur stdDeviation="2"/>
<feComposite in2="hardAlpha" operator="out"/>
<feColorMatrix type="matrix" values="0 0 0 0 0 0 0 0 0 0 0 0 0 0 0 0 0 0 0.25 0"/>
<feBlend mode="normal" in2="BackgroundImageFix" result="effect1_dropShadow_944_713"/>
<feBlend mode="normal" in="SourceGraphic" in2="effect1_dropShadow_944_713" result="shape"/>
</filter>
<linearGradient id="paint0_linear_944_713" x1="4" y1="-48" x2="144.841" y2="-15.3326" gradientUnits="userSpaceOnUse">
<stop offset="0.284375" stop-color="#E5C75E"/>
<stop offset="1" stop-color="#B96E38"/>
</linearGradient>
</defs>
</svg>
