<svg width="108" height="108" viewBox="0 0 108 108" fill="none" xmlns="http://www.w3.org/2000/svg">
<g filter="url(#filter0_d_944_719)">
<circle cx="54" cy="52" r="50" fill="url(#paint0_linear_944_719)"/>
</g>
<path d="M54.2089 54.8162C54.6182 54.8162 54.95 54.4844 54.95 54.0751C54.95 53.6658 54.6182 53.334 54.2089 53.334C53.7996 53.334 53.4678 53.6658 53.4678 54.0751C53.4678 54.4844 53.7996 54.8162 54.2089 54.8162Z" fill="#E6F5FA"/>
<path d="M55.1972 65.6834C55.6065 65.6834 55.9383 65.3516 55.9383 64.9423C55.9383 64.533 55.6065 64.2012 55.1972 64.2012C54.7879 64.2012 54.4561 64.533 54.4561 64.9423C54.4561 65.3516 54.7879 65.6834 55.1972 65.6834Z" fill="#E6F5FA"/>
<path d="M55.1962 56.7918C55.6055 56.7918 55.9373 56.46 55.9373 56.0507C55.9373 55.6414 55.6055 55.3096 55.1962 55.3096C54.7869 55.3096 54.4551 55.6414 54.4551 56.0507C54.4551 56.46 54.7869 56.7918 55.1962 56.7918Z" fill="#E6F5FA"/>
<path d="M57.1728 68.6478C57.5821 68.6478 57.9139 68.316 57.9139 67.9066C57.9139 67.4973 57.5821 67.1655 57.1728 67.1655C56.7635 67.1655 56.4316 67.4973 56.4316 67.9066C56.4316 68.316 56.7635 68.6478 57.1728 68.6478Z" fill="#E6F5FA"/>
<path d="M55.1972 60.743C55.6065 60.743 55.9383 60.4112 55.9383 60.0019C55.9383 59.5926 55.6065 59.2607 55.1972 59.2607C54.7879 59.2607 54.4561 59.5926 54.4561 60.0019C54.4561 60.4112 54.7879 60.743 55.1972 60.743Z" fill="#E6F5FA"/>
<path d="M53.2216 58.2737C53.6309 58.2737 53.9627 57.9419 53.9627 57.5326C53.9627 57.1233 53.6309 56.7915 53.2216 56.7915C52.8123 56.7915 52.4805 57.1233 52.4805 57.5326C52.4805 57.9419 52.8123 58.2737 53.2216 58.2737Z" fill="#E6F5FA"/>
<path d="M53.2216 63.2137C53.6309 63.2137 53.9627 62.8819 53.9627 62.4726C53.9627 62.0633 53.6309 61.7314 53.2216 61.7314C52.8123 61.7314 52.4805 62.0633 52.4805 62.4726C52.4805 62.8819 52.8123 63.2137 53.2216 63.2137Z" fill="#E6F5FA"/>
<path d="M52.2323 67.6595C52.6416 67.6595 52.9734 67.3277 52.9734 66.9184C52.9734 66.5091 52.6416 66.1772 52.2323 66.1772C51.823 66.1772 51.4912 66.5091 51.4912 66.9184C51.4912 67.3277 51.823 67.6595 52.2323 67.6595Z" fill="#E6F5FA"/>
<path d="M62.1178 45.5183C65.6366 42.4655 70.0161 38.6664 70.0161 30.5928V28.4194H71.4977C71.961 28.4194 72.3367 28.0444 72.3367 27.5804V24.0392C72.3367 23.5759 71.961 23.2002 71.4983 23.2002H36.9191C36.4564 23.2002 36.0801 23.5759 36.0801 24.0392V27.581C36.0801 28.0444 36.4558 28.42 36.9191 28.42H38.4014V30.5935C38.4014 38.6671 42.7802 42.4661 46.299 45.5189C48.786 47.677 50.7508 49.3813 50.7508 52.0008C50.7508 54.621 48.786 56.3253 46.299 58.4828C42.7802 61.5356 38.402 65.334 38.402 73.4056V75.581H36.9198C36.457 75.581 36.0807 75.9567 36.0807 76.42V79.9618C36.0807 80.4252 36.4564 80.8008 36.9198 80.8008H71.4983C71.9617 80.8008 72.3374 80.4252 72.3374 79.9618V76.42C72.3374 75.9567 71.9617 75.581 71.4983 75.581H70.0167V73.4056C70.0167 65.334 65.6378 61.5349 62.1191 58.4828C59.6314 56.3253 57.6673 54.621 57.6673 52.0008C57.6666 49.3807 59.6314 47.6764 62.1178 45.5183ZM60.8238 59.9746C64.2062 62.909 68.0398 66.2344 68.0398 73.405V75.5804H65.8388L55.7076 68.5487C55.2922 68.2716 54.7598 68.1186 54.2087 68.1186C53.6577 68.1186 53.1258 68.2716 52.6932 68.5602L42.5786 75.581H40.377V73.4056C40.377 66.2351 44.2113 62.9096 47.5937 59.9752C50.2337 57.6853 52.7271 55.5228 52.7271 52.0008C52.7271 51.7615 52.7137 51.5292 52.6913 51.302C52.6913 51.302 53.2154 52.4207 54.2094 52.4207C55.2033 52.4207 55.7274 51.302 55.7274 51.302C55.705 51.5292 55.691 51.7615 55.691 52.0008C55.6903 55.5221 58.1844 57.6847 60.8238 59.9746ZM41.465 36.5282C40.7918 34.8815 40.377 32.9448 40.377 30.5928V28.4194H68.0398V30.5928C68.0398 32.9448 67.6263 34.8815 66.9524 36.5282H41.465Z" fill="#E6F5FA"/>
<defs>
<filter id="filter0_d_944_719" x="0" y="0" width="108" height="108" filterUnits="userSpaceOnUse" color-interpolation-filters="sRGB">
<feFlood flood-opacity="0" result="BackgroundImageFix"/>
<feColorMatrix in="SourceAlpha" type="matrix" values="0 0 0 0 0 0 0 0 0 0 0 0 0 0 0 0 0 0 127 0" result="hardAlpha"/>
<feOffset dy="2"/>
<feGaussianBlur stdDeviation="2"/>
<feComposite in2="hardAlpha" operator="out"/>
<feColorMatrix type="matrix" values="0 0 0 0 0 0 0 0 0 0 0 0 0 0 0 0 0 0 0.25 0"/>
<feBlend mode="normal" in2="BackgroundImageFix" result="effect1_dropShadow_944_719"/>
<feBlend mode="normal" in="SourceGraphic" in2="effect1_dropShadow_944_719" result="shape"/>
</filter>
<linearGradient id="paint0_linear_944_719" x1="4" y1="-48" x2="144.841" y2="-15.3326" gradientUnits="userSpaceOnUse">
<stop offset="0.284375" stop-color="#E5C75E"/>
<stop offset="1" stop-color="#B96E38"/>
</linearGradient>
</defs>
</svg>
