<svg width="108" height="108" viewBox="0 0 108 108" fill="none" xmlns="http://www.w3.org/2000/svg">
<g filter="url(#filter0_d_944_635)">
<circle cx="54" cy="52" r="50" fill="url(#paint0_linear_944_635)"/>
</g>
<g clip-path="url(#clip0_944_635)">
<path d="M72.2325 63.4028C74.0178 64.5069 75.0396 65.788 75.0396 67.1547C75.0396 71.3042 65.6197 74.6678 53.9996 74.6678C42.3794 74.6678 32.9596 71.3042 32.9596 67.1547C32.9596 65.7883 33.9813 64.5072 35.7663 63.4028C32.8665 64.7846 31.1455 66.506 31.1455 68.3733C31.1455 72.9268 41.3775 76.6168 53.9996 76.6168C66.6217 76.6168 76.8537 72.9259 76.8537 68.3733C76.8537 66.5063 75.1327 64.7849 72.2325 63.4028Z" fill="#E6F5FA"/>
<path d="M68.1396 62.8802C68.691 63.4372 68.9921 64.0369 68.9921 64.6612C68.9921 67.6159 62.2798 70.011 54.0001 70.011C45.7204 70.011 39.0081 67.6159 39.0081 64.6612C39.0081 64.0369 39.3092 63.4372 39.8606 62.8799C38.4779 63.7457 37.6865 64.7472 37.6865 65.8166C37.6865 69.0663 44.9905 71.701 54.0001 71.701C63.0097 71.701 70.3137 69.0663 70.3137 65.8166C70.3137 64.7472 69.5224 63.7444 68.1396 62.8802Z" fill="#E6F5FA"/>
<path d="M48.385 61.7091C45.6871 59.8999 41.9412 56.823 39.4161 52.4416C38.7934 51.3556 38.256 50.2226 37.8087 49.0531C34.6948 48.1174 31.674 47.8701 29.3684 47.8701C28.2244 47.8701 27.3054 47.9326 26.7217 47.9875C27.6756 50.0542 31.0695 56.5793 37.3457 60.2109C41.9559 62.8783 47.0839 63.4385 50.5732 63.4385C50.8034 63.4385 51.0235 63.4359 51.2337 63.4308C50.267 62.9062 49.3108 62.329 48.385 61.7091Z" fill="#E6F5FA"/>
<path d="M78.6316 47.8687C76.3276 47.8687 73.3081 48.1159 70.1958 49.05C69.7492 50.2204 69.2119 51.3539 68.5887 52.4402C66.063 56.8235 62.3167 59.9 59.6194 61.7076C58.6959 62.3275 57.7398 62.9038 56.7695 63.4281C56.9791 63.4329 57.1977 63.4358 57.4265 63.4358C60.9161 63.4358 66.0438 62.8755 70.6543 60.2082C76.9311 56.5765 80.3247 50.0521 81.2783 47.9847C80.6953 47.9305 79.7759 47.8687 78.6316 47.8687Z" fill="#E6F5FA"/>
<path d="M50.0174 58.793C48.4714 55.6465 46.6289 50.7524 46.6289 45.2955C46.6305 44.0938 46.7161 42.8937 46.8849 41.704C43.1639 37.7703 38.8055 35.5368 37.1889 34.7935C37.0977 35.7516 36.9806 37.6199 37.1338 39.9377C37.3399 43.0505 38.09 47.6377 40.4938 51.8123C42.8977 55.9868 46.4884 58.9312 49.0753 60.6667C50.0449 61.3165 51.0471 61.9159 52.0782 62.4625C51.324 61.2785 50.636 60.0534 50.0174 58.793Z" fill="#E6F5FA"/>
<path d="M70.8124 34.7944C69.2578 35.5174 67.7623 36.3615 66.3397 37.3191C64.7992 38.352 62.9042 39.8159 61.1154 41.7107C61.284 42.8983 61.3696 44.0963 61.3714 45.2959C61.3714 50.7531 59.5285 55.6478 57.9826 58.7933C57.3625 60.0554 56.6729 61.2819 55.917 62.4673C56.95 61.9202 57.954 61.3197 58.925 60.6683C61.5125 58.9331 65.101 55.9887 67.5068 51.8139C71.4044 45.0496 71.0322 37.1562 70.8124 34.7944Z" fill="#E6F5FA"/>
<path d="M51.1397 32.3519C49.6527 35.3787 47.8799 40.0817 47.8799 45.2959C47.8799 50.5101 49.6527 55.2134 51.1397 58.2402C52.2677 60.5362 53.4072 62.2432 54.0002 63.0747C54.5935 62.2432 55.733 60.5362 56.861 58.2402C58.3487 55.2134 60.1212 50.512 60.1212 45.2959C60.1212 36.7833 55.4415 29.545 54.0002 27.5181C53.4069 28.3496 52.2674 30.0562 51.1397 32.3519Z" fill="#E6F5FA"/>
</g>
<defs>
<filter id="filter0_d_944_635" x="0" y="0" width="108" height="108" filterUnits="userSpaceOnUse" color-interpolation-filters="sRGB">
<feFlood flood-opacity="0" result="BackgroundImageFix"/>
<feColorMatrix in="SourceAlpha" type="matrix" values="0 0 0 0 0 0 0 0 0 0 0 0 0 0 0 0 0 0 127 0" result="hardAlpha"/>
<feOffset dy="2"/>
<feGaussianBlur stdDeviation="2"/>
<feComposite in2="hardAlpha" operator="out"/>
<feColorMatrix type="matrix" values="0 0 0 0 0 0 0 0 0 0 0 0 0 0 0 0 0 0 0.25 0"/>
<feBlend mode="normal" in2="BackgroundImageFix" result="effect1_dropShadow_944_635"/>
<feBlend mode="normal" in="SourceGraphic" in2="effect1_dropShadow_944_635" result="shape"/>
</filter>
<linearGradient id="paint0_linear_944_635" x1="4" y1="-48" x2="144.841" y2="-15.3326" gradientUnits="userSpaceOnUse">
<stop offset="0.284375" stop-color="#E5C75E"/>
<stop offset="1" stop-color="#B96E38"/>
</linearGradient>
<clipPath id="clip0_944_635">
<rect width="64" height="64" fill="white" transform="translate(22 20)"/>
</clipPath>
</defs>
</svg>
