<svg width="108" height="108" viewBox="0 0 108 108" fill="none" xmlns="http://www.w3.org/2000/svg">
<g filter="url(#filter0_d_944_762)">
<circle cx="54" cy="52" r="50" fill="url(#paint0_linear_944_762)"/>
</g>
<path d="M60.0802 36.5762C60.0802 33.1202 57.2642 30.2402 53.7442 30.2402C50.2882 30.2402 47.4082 33.0562 47.4082 36.5762C47.4082 40.0322 50.2242 42.9122 53.7442 42.9122C57.2642 42.9122 60.0802 40.0962 60.0802 36.5762Z" fill="#E6F5FA"/>
<path d="M72.8161 56.6082L66.8641 53.5362C66.1601 53.1522 65.5201 52.6402 65.0721 51.9362L61.6161 47.0082C60.4641 45.4082 58.6721 44.5122 56.7521 44.5122H50.9281C49.0081 44.5122 47.1521 45.4722 46.0641 47.0082L42.5441 51.9362C42.0961 52.5762 41.4561 53.1522 40.7521 53.5362L34.8641 56.6082C33.5201 57.3122 32.8801 58.8482 33.4561 60.2562C34.0961 61.8562 35.9521 62.4962 37.4241 61.7282L43.4401 58.5922C44.9761 57.8242 46.2561 56.6722 47.2801 55.2642L47.3441 55.1362V61.9842L38.0001 66.7842C36.4641 67.6162 35.6961 69.4082 36.2721 71.0722C36.7841 72.5442 38.1281 73.5042 39.6001 73.5042C39.7921 73.5042 40.0481 73.5042 40.2401 73.4402L52.9121 71.2002C53.5521 71.0722 54.2561 71.0722 54.9601 71.2002L67.6321 73.4402C67.8241 73.5042 68.0801 73.5042 68.2721 73.5042C69.7441 73.5042 71.0881 72.5442 71.6001 71.0722C72.1761 69.4082 71.4081 67.6162 69.8721 66.7842L60.5281 61.9842V55.1362L60.5921 55.2642C61.6161 56.6722 62.8961 57.8242 64.4321 58.5922L70.4481 61.7282C70.8961 61.9202 71.3441 62.0482 71.7281 62.0482C72.8801 62.0482 73.9681 61.3442 74.4161 60.1922C74.8001 58.7842 74.0961 57.3122 72.8161 56.6082Z" fill="#E6F5FA"/>
<path d="M82.6087 35.8721C80.6887 34.2721 77.8087 34.5921 76.0807 36.3201L75.0567 37.3441L73.9047 36.1921C71.9207 34.2081 68.6567 34.3361 66.8647 36.5121C65.2647 38.4321 65.5847 41.3121 67.3127 43.0401L74.0967 49.8241C74.6087 50.3361 75.4407 50.3361 76.0167 49.8241L82.9287 42.9121C84.9127 40.9921 84.7847 37.6641 82.6087 35.8721Z" fill="#E6F5FA"/>
<path d="M41.2643 40.8001L38.9603 40.5441C38.8963 40.5441 38.8323 40.4801 38.7683 40.4161C38.7043 40.1601 38.5763 39.9041 38.4483 39.6481C38.3843 39.5841 38.4483 39.4561 38.4483 39.3921L39.9203 37.6001C40.1763 37.3441 40.1123 36.8961 39.8563 36.6401L38.4483 35.2321C38.1923 34.9761 37.7443 34.9761 37.4883 35.1681L35.6963 36.6401C35.6323 36.7041 35.5683 36.7041 35.4403 36.6401C35.1843 36.5121 34.9283 36.3841 34.6723 36.3201C34.6083 36.3201 34.5443 36.2561 34.5443 36.1281L34.2883 33.8241C34.2243 33.4401 33.9683 33.1841 33.5843 33.1841H31.6003C31.2163 33.1841 30.8963 33.4401 30.8963 33.8241L30.6403 36.1281C30.6403 36.1921 30.5763 36.2561 30.5123 36.3201C30.2563 36.3841 30.0003 36.5121 29.7443 36.6401C29.6803 36.7041 29.5523 36.6401 29.4883 36.6401L27.6963 35.1681C27.4403 34.9121 26.9923 34.9761 26.7363 35.2321L25.3283 36.6401C25.0723 36.8961 25.0723 37.3441 25.2643 37.6001L26.7363 39.3921C26.8003 39.4561 26.8003 39.5201 26.7363 39.6481C26.6083 39.9041 26.4803 40.1601 26.4163 40.4161C26.4163 40.4801 26.3523 40.5441 26.2243 40.5441L23.9203 40.8001C23.5363 40.8641 23.2803 41.1201 23.2803 41.5041V43.4881C23.2803 43.8721 23.5363 44.1921 23.9203 44.1921L26.2243 44.4481C26.2883 44.4481 26.3523 44.5121 26.4163 44.5761C26.4803 44.8321 26.6083 45.0881 26.7363 45.3441C26.8003 45.4081 26.7363 45.5361 26.7363 45.6001L25.4563 47.3921C25.2003 47.6481 25.2643 48.0961 25.5203 48.3521L26.9283 49.7601C27.1843 50.0161 27.6323 50.0161 27.8883 49.8241L29.6803 48.3521C29.7443 48.2881 29.8083 48.2881 29.9363 48.3521C30.1923 48.4801 30.4483 48.6081 30.7043 48.6721C30.7683 48.6721 30.8323 48.7361 30.8323 48.8641L31.0883 51.1681C31.1523 51.5521 31.4083 51.8081 31.7923 51.8081H33.7763C34.1603 51.8081 34.4803 51.5521 34.4803 51.1681L34.7363 48.8641C34.7363 48.8001 34.8003 48.7361 34.8643 48.6721C35.1203 48.6081 35.3763 48.4801 35.6323 48.3521C35.6963 48.2881 35.8243 48.3521 35.8883 48.3521L37.6803 49.8241C37.9363 50.0801 38.3843 50.0161 38.6403 49.7601L40.0483 48.3521C40.3043 48.0961 40.3043 47.6481 40.1123 47.3921L38.6403 45.6001C38.5763 45.5361 38.5763 45.4721 38.6403 45.3441C38.7683 45.0881 38.8963 44.8321 38.9603 44.5761C38.9603 44.5121 39.0243 44.4481 39.1523 44.4481L41.4563 44.1921C41.8403 44.1281 42.0963 43.8721 42.0963 43.4881V41.5041C41.9043 41.1841 41.5843 40.8641 41.2643 40.8001ZM32.6883 45.3441C31.0883 45.3441 29.8723 44.0641 29.8723 42.5281C29.8723 40.9281 31.1523 39.7121 32.6883 39.7121C34.2243 39.7121 35.5043 40.9921 35.5043 42.5281C35.5683 44.0641 34.2883 45.3441 32.6883 45.3441Z" fill="#E6F5FA"/>
<defs>
<filter id="filter0_d_944_762" x="0" y="0" width="108" height="108" filterUnits="userSpaceOnUse" color-interpolation-filters="sRGB">
<feFlood flood-opacity="0" result="BackgroundImageFix"/>
<feColorMatrix in="SourceAlpha" type="matrix" values="0 0 0 0 0 0 0 0 0 0 0 0 0 0 0 0 0 0 127 0" result="hardAlpha"/>
<feOffset dy="2"/>
<feGaussianBlur stdDeviation="2"/>
<feComposite in2="hardAlpha" operator="out"/>
<feColorMatrix type="matrix" values="0 0 0 0 0 0 0 0 0 0 0 0 0 0 0 0 0 0 0.25 0"/>
<feBlend mode="normal" in2="BackgroundImageFix" result="effect1_dropShadow_944_762"/>
<feBlend mode="normal" in="SourceGraphic" in2="effect1_dropShadow_944_762" result="shape"/>
</filter>
<linearGradient id="paint0_linear_944_762" x1="4" y1="-48" x2="144.841" y2="-15.3326" gradientUnits="userSpaceOnUse">
<stop offset="0.284375" stop-color="#E5C75E"/>
<stop offset="1" stop-color="#B96E38"/>
</linearGradient>
</defs>
</svg>
